<?xml version="1.0" standalone="no"?>
<!DOCTYPE svg PUBLIC "-//W3C//DTD SVG 20010904//EN"
 "http://www.w3.org/TR/2001/REC-SVG-20010904/DTD/svg10.dtd">
<svg version="1.0" xmlns="http://www.w3.org/2000/svg"
 width="700.000000pt" height="700.000000pt" viewBox="0 0 700.000000 700.000000"
 preserveAspectRatio="xMidYMid meet">
<metadata>
Created by potrace 1.14, written by Peter Selinger 2001-2017
</metadata>
<g transform="translate(0.000000,700.000000) scale(0.100000,-0.100000)"
fill="#000000" stroke="none">
<path d="M3250 6934 c-314 -27 -574 -84 -898 -196 -223 -77 -364 -140 -531
-238 -350 -206 -595 -401 -865 -690 -357 -382 -607 -832 -760 -1368 -63 -219
-86 -333 -112 -545 -18 -148 -18 -149 1 -163 28 -21 27 -124 -1 -155 -17 -19
-19 -38 -19 -188 1 -209 24 -391 49 -391 15 0 76 -176 76 -219 0 -29 -2 -31
-26 -25 -26 7 -26 6 -19 -37 10 -60 84 -299 140 -450 110 -298 317 -658 531
-923 247 -307 587 -603 916 -798 247 -146 639 -321 682 -305 45 18 -4 89 -70
101 -42 8 -104 43 -160 90 -20 16 -58 34 -89 41 -53 13 -54 12 -70 -12 -20
-31 -45 -24 -101 27 -61 56 -110 84 -189 108 -51 16 -87 35 -135 74 -36 29
-84 67 -106 83 -181 132 -289 235 -330 317 -14 29 -35 63 -46 75 -14 14 -19
30 -15 44 9 33 -6 53 -74 98 -68 46 -99 52 -99 21 0 -25 -11 -25 -42 -1 -66
53 -292 390 -274 409 10 9 53 -37 77 -82 21 -41 24 -42 50 -33 24 9 32 7 64
-19 20 -16 57 -41 83 -56 88 -50 137 -92 174 -148 20 -30 39 -65 42 -76 4 -12
38 -48 76 -80 39 -32 72 -65 74 -73 2 -9 10 -41 17 -71 37 -169 101 -238 252
-276 45 -11 79 -27 106 -51 39 -33 42 -34 78 -22 83 26 86 28 80 57 -12 61
-12 66 6 70 23 5 57 -25 57 -49 0 -10 -10 -34 -21 -54 -25 -42 -21 -48 42 -63
26 -7 55 -15 65 -18 11 -4 4 4 -15 17 -39 29 -66 71 -58 92 10 26 77 31 127 9
67 -29 166 -106 181 -141 13 -30 39 -43 39 -20 0 8 14 10 41 6 54 -7 68 -21
46 -45 -33 -36 -11 -72 43 -72 12 0 36 -7 53 -15 18 -8 50 -21 72 -28 53 -19
51 -39 -5 -53 -39 -10 -45 -14 -42 -35 1 -13 9 -30 17 -38 25 -25 166 -72 245
-82 75 -9 144 -36 142 -54 -3 -14 -166 -18 -241 -5 -60 10 -83 8 -68 -6 21
-21 369 -99 552 -124 250 -33 642 -31 907 6 427 59 852 203 1246 421 455 253
856 631 1161 1093 323 490 509 1009 560 1560 14 145 14 468 1 625 -51 599
-267 1194 -614 1689 -241 343 -588 683 -933 914 -396 265 -865 440 -1398 524
-104 16 -188 21 -415 23 -157 1 -305 1 -330 -1z m417 -64 c43 -11 86 -25 95
-30 10 -6 28 -10 41 -10 12 0 33 -7 45 -16 21 -14 27 -14 71 2 43 15 56 16
111 5 122 -24 525 -160 664 -225 44 -20 95 -36 115 -36 50 0 83 -19 100 -57 8
-17 23 -35 35 -41 104 -46 138 -65 187 -105 81 -66 127 -170 99 -223 -12 -21
-11 -27 5 -44 10 -11 33 -29 50 -40 36 -22 58 -63 50 -91 -7 -22 -9 -22 -96
-23 l-67 -1 -46 -50 c-26 -27 -45 -56 -44 -65 4 -16 12 -16 103 -5 28 3 56 2
64 -3 20 -14 4 -50 -30 -67 -16 -9 -29 -21 -29 -28 0 -16 151 -97 180 -97 13
0 25 10 32 28 7 15 13 28 14 30 5 10 34 -14 34 -28 0 -26 14 -32 36 -15 38 29
84 13 84 -30 0 -29 -43 -99 -62 -103 -13 -2 -16 3 -15 25 2 25 -2 28 -32 31
-43 4 -64 -14 -37 -33 52 -39 -43 -47 -121 -10 -48 22 -70 45 -43 45 6 0 10 7
10 15 0 8 -16 19 -39 25 -42 11 -75 33 -138 93 -34 32 -57 44 -127 63 -63 17
-94 20 -118 14 -18 -5 -45 -12 -60 -15 -14 -3 -40 -17 -57 -31 -46 -38 -65
-27 -57 35 3 27 3 56 0 65 -11 27 -59 46 -120 46 -32 0 -72 5 -90 12 -28 10
-35 9 -59 -10 -15 -12 -41 -22 -56 -22 -22 0 -29 -5 -29 -19 0 -26 46 -61 80
-61 26 0 150 -75 150 -91 0 -13 -67 -22 -97 -14 -16 4 -38 9 -50 10 -65 9
-162 69 -192 121 -22 37 -79 68 -105 58 -27 -10 -18 -33 22 -53 21 -11 43 -30
50 -43 24 -47 98 -142 135 -172 32 -25 47 -30 92 -30 42 0 59 5 78 22 31 29
62 28 94 -4 34 -34 99 -64 141 -64 60 0 76 -18 100 -111 19 -72 -25 -77 -80
-8 -23 29 -39 39 -60 39 -21 0 -28 5 -28 20 0 27 -58 90 -82 90 -11 0 -22 -8
-25 -20 -4 -13 -14 -20 -30 -20 -45 0 -63 -17 -63 -60 0 -35 -3 -39 -30 -45
-16 -4 -32 -11 -35 -16 -19 -29 -99 22 -148 94 -30 44 -55 64 -129 102 -26 14
-64 40 -84 57 -29 26 -46 33 -78 33 -33 0 -43 4 -51 23 -10 23 -35 31 -35 10
0 -15 30 -48 43 -48 18 0 47 -32 47 -53 0 -18 -6 -19 -65 -15 -36 2 -65 1 -65
-3 0 -11 75 -72 123 -101 71 -41 112 -138 58 -138 -12 0 -29 16 -45 44 -31 53
-80 86 -129 86 -44 0 -67 8 -67 25 0 7 -15 26 -34 43 -58 51 -116 57 -62 7 22
-21 25 -28 16 -45 -20 -36 -44 -21 -79 51 -26 54 -34 60 -105 74 -16 4 -49 27
-75 54 -26 27 -56 51 -68 55 -16 5 -26 21 -35 54 l-14 47 -56 3 c-61 3 -118
-17 -118 -42 0 -7 8 -24 18 -37 10 -13 21 -32 25 -42 4 -9 19 -22 34 -28 50
-20 93 -43 93 -50 0 -3 -11 -11 -25 -17 -38 -17 -31 -47 17 -82 48 -35 78 -45
113 -36 21 5 25 12 25 42 0 33 2 35 17 23 31 -26 52 -90 46 -139 l-5 -46 78
-34 c83 -35 184 -52 184 -31 0 6 -6 14 -12 16 -8 3 -13 24 -14 50 -1 42 1 45
24 45 30 0 112 -38 112 -51 0 -5 -19 -30 -42 -56 -40 -42 -42 -47 -25 -57 54
-32 54 -32 19 -64 -18 -16 -32 -35 -32 -41 0 -6 -8 -15 -19 -20 -13 -8 -36 -4
-87 15 -84 31 -88 32 -93 19 -2 -5 13 -18 33 -28 65 -31 56 -77 -14 -77 -28 0
-41 -6 -53 -22 -14 -22 -18 -23 -165 -20 -155 4 -228 -5 -167 -19 17 -4 64 -7
106 -8 71 -1 79 -3 123 -38 38 -29 58 -37 102 -41 49 -4 56 -8 71 -36 22 -42
40 -54 93 -62 36 -5 53 -16 86 -51 l42 -45 32 19 c18 10 44 24 59 32 14 8 53
17 86 20 59 6 60 7 63 38 4 40 28 49 75 29 40 -16 57 -42 57 -83 0 -35 -10
-50 -35 -54 -14 -3 -21 -14 -25 -39 -7 -49 -47 -54 -96 -11 -62 55 -96 35 -74
-43 11 -40 16 -45 55 -55 24 -6 47 -15 50 -21 3 -5 16 -10 28 -10 25 0 67 -26
67 -41 0 -5 -16 -2 -36 6 -28 11 -40 12 -50 4 -40 -33 18 -122 91 -140 24 -6
55 -24 71 -40 15 -16 34 -29 41 -29 7 0 13 -2 13 -4 0 -2 3 -12 7 -21 5 -15 1
-16 -24 -11 -27 6 -31 4 -37 -17 -5 -22 -10 -24 -49 -20 -36 4 -52 0 -94 -26
-63 -39 -125 -61 -172 -61 -74 0 -103 -51 -60 -109 12 -16 19 -37 17 -47 -3
-16 -13 -19 -75 -19 -61 0 -75 3 -97 24 -24 23 -26 23 -60 7 -19 -9 -42 -16
-53 -16 -10 0 -29 -9 -43 -20 -14 -11 -32 -20 -40 -20 -35 0 -90 22 -126 51
-34 27 -44 30 -84 26 -111 -14 -138 -20 -181 -43 -30 -15 -83 -29 -149 -38
-64 -9 -109 -20 -118 -30 -15 -15 -12 -16 29 -16 48 0 69 -13 69 -42 0 -22
-23 -34 -78 -41 -23 -3 -54 -13 -69 -24 -14 -10 -32 -22 -40 -28 -10 -7 -17
-5 -24 8 -6 9 -18 17 -27 17 -34 0 -121 -49 -175 -98 -31 -28 -84 -65 -119
-82 -35 -17 -75 -43 -90 -57 l-28 -27 -23 22 c-32 30 -47 28 -94 -13 -45 -38
-73 -44 -97 -19 -21 20 -21 18 14 80 19 32 27 55 20 59 -23 14 -7 36 43 61 28
15 66 37 82 49 37 28 74 37 115 29 38 -8 48 -28 26 -53 -12 -13 -15 -27 -10
-45 11 -44 34 -24 34 30 0 13 6 24 13 24 7 0 35 14 63 32 l49 31 -30 9 c-16 4
-41 6 -53 3 -44 -11 -70 37 -37 65 18 15 20 61 3 78 -18 18 -49 14 -93 -13
-43 -27 -100 -34 -93 -12 3 6 22 23 43 37 l38 25 -32 3 c-44 5 -39 22 7 22 55
0 102 16 133 46 26 25 138 64 182 64 10 0 60 18 110 39 51 21 113 46 138 55
25 9 64 32 85 50 21 18 57 42 79 54 118 60 161 84 174 97 8 8 13 33 13 63 -1
33 3 54 13 62 22 18 18 37 -9 44 -15 4 -26 15 -28 28 -2 14 -19 30 -47 45 -52
27 -83 29 -102 7 -11 -13 -26 -15 -71 -11 l-57 5 -3 -36 c-3 -34 -6 -37 -35
-40 -21 -2 -33 -9 -33 -18 0 -8 -10 -14 -23 -14 -35 0 -40 -11 -15 -37 12 -13
20 -23 17 -24 -2 0 -20 -2 -39 -4 -19 -2 -47 -6 -61 -10 -23 -6 -28 -3 -36 21
-9 26 -13 28 -55 25 -31 -1 -50 3 -62 14 -27 28 -19 38 24 32 28 -4 40 -1 40
7 0 21 -36 47 -54 40 -23 -9 -20 8 15 75 35 67 33 87 -8 97 -37 9 -53 22 -53
45 0 23 -17 24 -42 3 -15 -14 -20 -15 -34 -3 -13 11 -15 25 -9 86 l7 73 -45
45 c-52 51 -72 100 -63 156 5 31 2 46 -14 67 -23 31 -18 58 21 113 l20 29 -25
0 c-14 0 -29 7 -34 17 -15 25 -39 9 -51 -34 -15 -52 -14 -77 5 -115 15 -32 14
-35 -20 -101 -20 -38 -36 -78 -36 -91 0 -28 -64 -183 -85 -206 -9 -10 -29 -20
-44 -23 -16 -3 -42 -17 -59 -31 -51 -43 -79 -33 -57 20 8 19 12 34 9 34 -3 0
-51 -33 -106 -72 -176 -128 -192 -136 -323 -163 -149 -30 -291 -15 -399 43
-50 27 -177 155 -202 204 -19 36 -30 35 -49 -2 -18 -35 -35 -39 -42 -10 -7 25
-25 26 -47 2 -27 -31 -59 -177 -52 -241 17 -149 18 -211 6 -226 -9 -11 -11
-35 -5 -87 7 -72 7 -72 -12 -49 l-19 24 -43 -24 c-36 -20 -47 -35 -74 -96 -41
-93 -68 -129 -90 -120 -10 4 -17 17 -17 32 0 34 -22 41 -78 23 -73 -24 -97 -3
-45 38 l27 21 -18 38 c-16 34 -17 39 -2 53 14 14 17 14 36 -3 16 -15 25 -17
38 -9 28 18 72 113 72 156 l0 40 -34 -6 c-32 -6 -34 -5 -40 28 -11 56 -30 63
-61 21 -16 -20 -36 -35 -49 -35 -32 0 -47 -14 -63 -56 -26 -70 -26 -74 -8 -88
15 -11 17 -22 12 -60 -4 -26 -3 -46 3 -46 15 0 21 -36 10 -64 -7 -20 -16 -27
-33 -24 -36 5 -70 85 -75 179 -4 68 -1 87 27 166 18 48 40 101 50 118 10 16
29 73 41 125 13 52 30 109 39 125 l15 30 4 -25 c6 -46 23 -87 42 -105 18 -16
22 -14 88 51 38 38 77 81 86 96 22 33 66 218 66 275 0 48 -9 58 -36 38 -10 -8
-22 -15 -26 -15 -16 0 -7 38 16 71 14 19 38 57 55 86 17 28 50 71 74 95 24 24
50 54 59 68 9 14 36 33 64 43 47 17 49 17 74 -1 18 -14 26 -31 30 -63 4 -28
16 -58 35 -81 42 -53 55 -37 84 103 15 70 54 132 99 156 18 10 42 32 53 50
l20 32 20 -20 c24 -24 58 -20 131 17 26 13 63 26 84 28 43 6 81 38 131 116 20
30 45 65 56 77 20 22 20 22 0 75 l-20 52 -16 -27 c-10 -15 -24 -38 -32 -51 -9
-16 -33 -30 -69 -40 -30 -9 -76 -25 -102 -36 -36 -16 -50 -18 -60 -9 -21 17
-115 5 -178 -24 -42 -19 -70 -44 -126 -110 -66 -78 -75 -85 -101 -80 -22 4
-37 -2 -69 -27 -74 -59 -41 -18 103 128 107 109 161 155 219 188 82 48 92 57
117 107 12 23 35 41 86 67 102 51 125 68 141 105 7 18 30 46 49 62 46 39 214
127 223 118 4 -4 7 -28 7 -53 0 -63 21 -66 85 -10 27 24 75 59 107 78 84 50
127 84 143 117 27 54 54 73 157 113 184 72 495 138 769 164 85 8 168 11 192 6
26 -4 58 -2 89 6 61 18 166 11 270 -16z m2238 -1753 c56 -23 83 -39 92 -57 48
-98 83 -177 83 -186 0 -24 26 -35 54 -23 35 16 42 6 22 -35 -9 -19 -16 -38
-16 -43 0 -5 -14 -31 -32 -58 -24 -36 -32 -58 -31 -88 1 -22 -4 -52 -11 -66
-8 -14 -17 -62 -21 -105 -9 -100 -23 -139 -78 -219 -24 -35 -73 -124 -110
-198 -68 -136 -134 -228 -232 -321 -27 -27 -56 -50 -65 -53 -8 -3 -22 -18 -32
-34 -22 -40 -63 -64 -117 -71 -44 -5 -47 -7 -77 -64 -17 -32 -54 -80 -83 -106
-56 -52 -60 -50 -64 29 -2 55 41 107 121 146 34 17 76 44 94 61 18 17 51 42
73 57 22 14 79 66 127 114 68 69 98 108 135 178 153 294 163 324 163 481 0
115 1 124 19 124 24 0 45 25 37 45 -8 22 -32 18 -50 -7 -13 -17 -18 -19 -30
-9 -27 22 -31 79 -10 139 l18 54 -24 20 c-17 14 -32 17 -54 12 -47 -9 -68 -36
-74 -93 -2 -28 -7 -51 -9 -51 -3 0 -16 9 -30 20 -32 25 -49 25 -63 1 -13 -24
-4 -48 20 -54 10 -2 26 -17 35 -31 15 -23 16 -33 6 -65 -6 -21 -11 -61 -11
-89 0 -54 -14 -102 -29 -102 -6 0 -7 30 -4 73 5 61 2 81 -16 121 -11 27 -21
61 -21 76 0 40 -20 53 -59 39 -29 -10 -41 -7 -124 34 -141 70 -187 71 -187 7
0 -21 12 -38 47 -67 25 -22 43 -44 40 -50 -4 -6 -39 -19 -78 -28 -53 -13 -73
-23 -77 -37 -5 -21 -23 -19 -91 15 -29 15 -51 36 -68 66 -13 24 -33 51 -44 60
-18 15 -18 20 -5 73 7 32 21 70 31 85 26 39 24 113 -4 151 -11 17 -21 35 -21
41 0 7 35 11 103 11 75 0 108 4 123 15 32 24 63 19 69 -12 22 -108 84 -149
259 -169 l54 -6 5 38 c3 22 9 52 13 68 5 22 3 32 -11 42 -15 12 -17 18 -7 39
15 33 59 35 64 3 5 -38 31 -26 59 26 15 26 33 52 40 57 27 17 85 8 164 -24z
m-4318 -746 c-4 -21 -1 -34 13 -46 30 -27 25 -41 -22 -67 -24 -13 -42 -28 -41
-33 1 -6 35 -13 74 -17 91 -8 106 -21 85 -72 -20 -48 -12 -70 23 -61 14 4 51
8 81 9 50 1 55 -1 58 -22 2 -14 15 -27 38 -37 19 -8 34 -18 34 -23 0 -10 -104
-22 -199 -22 -36 0 -94 -7 -130 -16 -51 -13 -69 -14 -83 -5 -16 10 -26 8 -56
-8 -91 -49 -104 -53 -130 -42 -18 9 -28 9 -38 0 -19 -15 -52 -3 -36 13 21 21
13 27 -20 17 -41 -11 -95 -12 -102 0 -3 4 3 16 14 26 18 16 18 19 4 30 -14 10
-15 14 -3 34 15 24 119 103 189 143 25 14 80 54 123 87 58 46 77 67 77 85 0
38 10 56 32 56 17 0 20 -5 15 -29z m-1 -872 c25 -23 69 -28 103 -9 31 16 127
14 180 -5 23 -8 45 -14 49 -14 44 7 112 -55 112 -102 0 -30 0 -30 -47 -24 -41
6 -53 3 -82 -19 -19 -14 -44 -26 -55 -26 -12 0 -41 -9 -65 -20 -55 -25 -72
-25 -105 1 -25 20 -28 20 -45 5 -17 -16 -20 -15 -41 21 -12 20 -26 64 -31 97
-6 32 -14 67 -19 77 -23 42 7 54 46 18z m-874 -97 c32 3 33 2 70 -87 20 -49
39 -99 43 -110 5 -19 6 -19 16 -2 12 21 29 13 29 -14 0 -25 25 -35 45 -19 20
17 70 6 117 -25 64 -43 44 -70 -43 -59 -43 6 -50 4 -74 -21 -35 -34 -22 -53
25 -36 33 11 50 8 50 -10 0 -18 -65 -49 -103 -49 -21 0 -47 -5 -59 -11 -26
-14 -151 24 -179 54 -23 25 -24 59 -5 90 10 14 15 54 16 117 1 52 2 109 2 125
0 17 -3 41 -7 55 -8 22 -7 24 8 12 9 -7 31 -12 49 -10z m1941 -393 c12 -7 38
-25 58 -40 41 -33 61 -36 79 -14 7 8 22 15 34 15 32 0 166 -67 166 -83 0 -7 6
-22 14 -32 12 -17 17 -18 39 -6 14 7 30 10 36 7 14 -9 14 -43 1 -51 -20 -12
-9 -36 40 -90 28 -30 50 -62 50 -71 0 -9 10 -34 22 -55 l22 -39 -24 -47 c-13
-26 -25 -68 -28 -93 -4 -46 -4 -47 41 -73 74 -44 101 -34 47 18 -32 31 -49 90
-32 107 11 11 52 -1 112 -32 16 -8 32 -87 31 -157 0 -31 6 -50 24 -70 l24 -28
26 33 c15 17 35 32 45 32 26 0 33 15 18 39 -10 17 -9 24 9 43 12 13 25 35 28
50 10 38 71 122 79 109 4 -6 4 -26 1 -44 -7 -34 -6 -34 41 -46 l49 -12 35 39
c19 22 45 43 57 47 12 3 23 16 25 28 2 14 11 23 26 25 27 4 28 -6 5 -47 -17
-28 -17 -32 -2 -47 15 -14 19 -14 46 0 40 20 53 6 53 -58 0 -96 -16 -116 -73
-92 -28 11 -36 11 -55 -2 -34 -22 -53 -9 -50 35 3 36 1 38 -29 41 -29 3 -33 0
-41 -30 -7 -27 -15 -34 -50 -43 -23 -5 -46 -15 -53 -21 -17 -18 -6 -48 20 -54
14 -3 26 -11 29 -18 5 -17 -47 -35 -82 -28 -26 5 -28 4 -21 -17 18 -58 17 -61
-22 -82 -46 -24 -83 -77 -83 -119 0 -17 -9 -51 -20 -75 -11 -24 -20 -51 -20
-61 0 -28 -28 -44 -79 -46 -43 -2 -46 -4 -44 -28 1 -14 -3 -26 -8 -26 -13 0
-29 44 -29 78 0 46 -26 72 -70 72 -27 0 -48 8 -67 24 -26 23 -28 29 -26 91 1
63 0 66 -16 51 -10 -9 -32 -16 -49 -16 -30 0 -31 -2 -25 -31 4 -23 0 -38 -17
-61 -21 -29 -22 -33 -8 -57 8 -14 21 -24 29 -22 8 2 21 5 29 8 8 2 31 -10 50
-27 l35 -31 -83 6 c-105 7 -127 -2 -117 -52 11 -61 28 -84 77 -109 88 -44 58
-52 -108 -28 -35 5 -44 3 -57 -16 l-16 -23 -33 36 c-18 19 -42 37 -53 39 -18
3 -20 12 -22 93 -2 123 -9 172 -32 204 -25 34 -55 110 -48 117 3 4 31 -8 61
-26 85 -48 126 -20 91 62 -20 49 -19 62 10 132 l24 60 -19 43 c-29 66 -50 53
-50 -32 0 -53 -14 -93 -35 -102 -22 -8 -66 36 -121 119 -40 61 -47 67 -81 70
-36 3 -38 5 -35 33 2 17 3 46 3 65 -1 53 7 78 30 90 24 13 49 -2 49 -29 0 -9
5 -23 10 -31 9 -13 13 -12 29 8 11 12 24 22 30 22 18 0 12 24 -9 38 -14 8 -20
23 -20 48 0 24 -8 43 -25 59 -29 30 -42 31 -69 6 -26 -23 -100 -39 -94 -20 8
25 57 52 108 60 69 11 91 27 129 94 35 62 35 91 0 80 -27 -9 -106 21 -119 46
-9 16 -4 22 35 40 25 12 48 25 51 30 7 12 31 11 57 -2z m-843 -110 c26 -27 35
-30 63 -24 93 19 115 18 128 -7 8 -13 14 -55 14 -98 0 -69 2 -75 21 -78 14 -2
27 6 38 22 22 34 49 35 40 2 -4 -19 1 -30 20 -47 l26 -22 -26 -44 c-27 -46
-24 -68 6 -58 12 4 27 -2 39 -14 25 -25 26 -40 7 -66 -13 -18 -15 -18 -41 13
-15 18 -33 32 -41 32 -9 0 -14 11 -14 28 0 64 -22 90 -49 58 -6 -8 -26 -16
-44 -19 -18 -3 -42 -8 -54 -12 -19 -6 -23 -4 -23 14 0 18 -3 20 -19 10 -28
-18 -49 -4 -56 38 -4 21 -15 65 -25 98 -18 57 -50 205 -44 205 1 0 16 -14 34
-31z m46 -559 c24 -22 48 -40 54 -40 5 0 10 14 10 31 0 36 15 35 44 -5 l21
-28 -27 -22 c-51 -40 -30 -60 51 -47 27 4 61 16 76 25 36 24 75 13 113 -30 18
-20 36 -33 42 -29 15 10 12 20 -16 50 -20 22 -23 30 -12 36 22 15 58 10 86
-11 22 -16 33 -19 53 -11 21 8 29 3 65 -35 61 -66 90 -58 108 29 7 31 31 36
45 9 5 -10 13 -42 17 -70 5 -40 3 -57 -10 -77 -18 -28 -47 -33 -66 -10 -16 19
-70 19 -95 1 -17 -12 -18 -17 -6 -53 20 -59 12 -85 -31 -106 l-38 -19 16 -29
c37 -73 -42 -178 -111 -147 -20 9 -33 8 -65 -7 -31 -14 -43 -15 -54 -6 -9 7
-28 10 -48 6 -30 -5 -38 -1 -77 39 -39 40 -45 52 -49 99 -4 46 -1 57 23 85 29
34 49 40 62 18 12 -20 75 -56 100 -56 28 0 103 49 103 68 0 8 17 30 37 50 35
33 36 35 18 48 -12 9 -31 12 -50 8 -23 -4 -41 2 -77 26 -33 22 -56 30 -81 28
-19 -1 -42 4 -51 11 -13 11 -17 9 -27 -13 -15 -31 -32 -32 -91 -6 -54 24 -147
35 -168 20 -13 -9 -12 -13 9 -30 13 -11 34 -20 47 -20 13 0 24 -5 24 -11 0
-14 -63 -39 -98 -39 -16 0 -35 -7 -42 -15 -6 -8 -21 -17 -33 -21 -11 -4 -28
-16 -38 -27 l-16 -21 -26 29 c-15 17 -27 32 -27 35 0 3 -4 11 -9 19 -7 11 -16
7 -44 -22 -29 -31 -41 -37 -75 -37 -58 0 -87 37 -97 126 -6 57 -4 70 13 93 10
14 30 32 43 38 32 17 90 16 113 -2 16 -12 22 -12 39 0 14 10 25 11 39 4 23
-12 23 0 1 40 -17 29 -17 31 0 48 16 16 19 16 46 0 39 -23 108 -22 151 2 19
11 37 20 39 20 2 1 23 -17 47 -39z m3653 -402 c14 -25 14 -29 -8 -52 -19 -20
-21 -27 -11 -46 10 -18 9 -35 -5 -82 -21 -75 -12 -90 40 -65 40 19 65 22 65 7
0 -5 -3 -10 -8 -10 -4 0 -34 -20 -66 -44 -32 -24 -81 -51 -107 -59 -26 -9 -73
-36 -104 -61 -41 -34 -64 -46 -89 -46 -31 0 -35 4 -48 43 -8 23 -18 50 -22 59
-6 13 1 21 31 36 44 23 88 66 79 80 -3 5 -24 12 -47 15 -23 3 -51 15 -62 26
-19 19 -19 21 -4 45 10 14 17 32 17 40 0 25 30 46 65 46 40 0 65 22 65 57 l0
26 80 -7 c68 -5 81 -4 86 9 9 23 36 14 53 -17z m-708 -138 c42 -28 49 -30 153
-30 l108 0 40 -41 c48 -49 42 -61 -41 -86 -68 -20 -243 -23 -321 -6 -30 7 -90
17 -133 24 -74 11 -79 11 -105 -10 -15 -11 -38 -26 -51 -31 -35 -15 -48 3 -19
26 39 31 58 66 58 107 0 70 46 60 89 -19 14 -27 34 -50 43 -52 27 -5 139 51
135 68 -4 22 -44 14 -79 -15 -16 -14 -34 -23 -39 -19 -14 8 -11 40 6 54 8 7
15 21 15 30 0 41 81 41 141 0z"/>
<path d="M1949 5990 c-24 -16 -50 -30 -57 -30 -41 0 -162 -100 -203 -167 -45
-72 4 -54 111 42 115 103 158 118 109 39 -15 -26 -17 -34 -7 -34 8 0 19 5 26
12 16 16 29 1 16 -20 -6 -9 -25 -18 -43 -20 -40 -4 -51 -29 -51 -115 0 -84
-12 -119 -60 -184 -38 -49 -44 -54 -71 -48 -38 8 -77 -16 -91 -55 -5 -16 -34
-47 -63 -69 -69 -52 -78 -70 -70 -132 5 -33 3 -54 -5 -64 -11 -13 -6 -15 30
-15 42 0 42 0 36 -30 -3 -19 1 -43 12 -66 16 -34 16 -36 -3 -50 -29 -22 -37
-17 -21 15 17 32 6 51 -28 51 -47 0 -62 12 -78 57 -16 44 -16 47 0 59 15 12
13 17 -27 52 -44 38 -44 38 -39 94 7 81 49 159 136 250 41 43 73 80 70 83 -2
3 -20 0 -39 -5 -23 -7 -49 -7 -81 1 -42 10 -51 9 -81 -10 -63 -39 -117 -115
-144 -203 -16 -54 -23 -94 -19 -117 3 -20 1 -54 -5 -76 -5 -22 -18 -85 -27
-140 -14 -78 -22 -101 -35 -103 -13 -3 -17 4 -17 27 0 29 -3 31 -34 31 -25 0
-38 6 -50 25 -21 32 -20 48 4 87 23 38 26 86 7 112 -45 62 -130 -85 -130 -226
0 -61 15 -93 89 -184 44 -55 72 -62 86 -24 8 25 12 28 32 19 13 -6 32 -30 44
-54 12 -24 33 -52 48 -61 29 -19 37 -19 249 26 133 28 174 49 247 131 37 40
70 69 82 69 10 0 39 17 64 37 87 71 122 211 60 241 -16 8 -28 21 -28 32 0 14
-11 22 -40 30 -32 9 -40 15 -40 33 0 29 18 47 47 47 25 0 63 50 63 83 0 17 -2
17 -30 -3 -46 -33 -37 -5 26 77 62 80 83 93 58 36 -9 -21 -19 -49 -22 -61 -9
-42 31 -21 58 30 37 68 65 95 149 140 43 24 81 53 91 70 30 49 118 98 176 98
30 0 31 14 2 34 -29 21 -43 20 -94 -5 l-43 -20 -30 22 c-27 20 -34 21 -69 11
-70 -21 -103 -12 -67 18 40 33 -1 40 -59 11 -63 -33 -96 -42 -96 -27 0 7 3 16
7 20 4 4 15 27 24 51 16 43 16 45 0 45 -10 0 -38 -13 -62 -30z"/>
<path d="M2715 5691 c-11 -5 -44 -12 -72 -16 -32 -4 -69 -18 -95 -36 -24 -16
-49 -29 -56 -29 -22 0 -62 -51 -62 -79 0 -24 1 -24 44 18 42 41 49 44 118 51
40 4 83 12 95 18 31 17 63 15 63 -3 0 -9 -20 -38 -45 -64 -42 -45 -44 -50 -34
-79 10 -30 8 -35 -47 -97 -32 -36 -65 -65 -75 -65 -22 0 -35 -17 -43 -58 l-6
-34 29 25 c16 13 50 30 76 37 41 12 50 11 75 -3 43 -26 66 -21 88 17 12 19 39
44 61 56 45 23 76 70 67 105 -8 30 -31 38 -64 21 -39 -20 -102 -31 -102 -18 0
17 70 80 120 109 69 40 82 54 69 70 -6 7 -24 13 -39 13 -15 0 -48 11 -74 25
-50 27 -60 28 -91 16z"/>
<path d="M1975 661 c51 -20 85 -29 85 -21 0 5 -17 14 -37 19 -45 13 -78 14
-48 2z"/>
</g>
</svg>
